<svg width="128" height="19" viewBox="0 0 128 19" fill="none" xmlns="http://www.w3.org/2000/svg">
<path d="M6.51421 18.24C5.39421 18.24 4.41021 18.032 3.56221 17.616C2.73021 17.184 2.08221 16.584 1.61821 15.816C1.15421 15.032 0.922211 14.112 0.922211 13.056V9.74398C0.922211 8.67198 1.15421 7.75198 1.61821 6.98398C2.08221 6.21598 2.73021 5.62398 3.56221 5.20798C4.41021 4.77598 5.39421 4.55998 6.51421 4.55998C8.17821 4.55998 9.50621 4.99198 10.4982 5.85598C11.4902 6.70398 12.0102 7.86398 12.0582 9.33598H9.05821C9.01021 8.64798 8.76221 8.11998 8.31421 7.75198C7.88221 7.36798 7.28221 7.17598 6.51421 7.17598C5.71421 7.17598 5.08221 7.39998 4.61821 7.84798C4.15421 8.27998 3.92221 8.90398 3.92221 9.71998V13.056C3.92221 13.872 4.15421 14.504 4.61821 14.952C5.08221 15.4 5.71421 15.624 6.51421 15.624C7.28221 15.624 7.88221 15.44 8.31421 15.072C8.76221 14.688 9.01021 14.152 9.05821 13.464H12.0582C12.0102 14.936 11.4902 16.104 10.4982 16.968C9.50621 17.816 8.17821 18.24 6.51421 18.24Z" fill="white"/>
<path d="M15.5528 18V0.47998H18.5528V9.98398H20.6408L23.8568 4.79998H27.2168L23.2328 11.184L27.2888 18H23.8568L20.6408 12.528H18.5528V18H15.5528Z" fill="white"/>
<path d="M35.2475 18.24C34.1275 18.24 33.1515 18.024 32.3195 17.592C31.4875 17.16 30.8395 16.56 30.3755 15.792C29.9275 15.008 29.7035 14.096 29.7035 13.056V9.74398C29.7035 8.70398 29.9275 7.79998 30.3755 7.03198C30.8395 6.24798 31.4875 5.63998 32.3195 5.20798C33.1515 4.77598 34.1275 4.55998 35.2475 4.55998C36.3515 4.55998 37.3115 4.77598 38.1275 5.20798C38.9595 5.63998 39.5995 6.24798 40.0475 7.03198C40.5115 7.79998 40.7435 8.70398 40.7435 9.74398V12.12H32.6075V13.056C32.6075 13.984 32.8315 14.688 33.2795 15.168C33.7275 15.632 34.3915 15.864 35.2715 15.864C35.9435 15.864 36.4875 15.752 36.9035 15.528C37.3195 15.288 37.5835 14.944 37.6955 14.496H40.6475C40.4235 15.632 39.8155 16.544 38.8235 17.232C37.8475 17.904 36.6555 18.24 35.2475 18.24ZM37.8395 10.44V9.71998C37.8395 8.80798 37.6235 8.11198 37.1915 7.63198C36.7595 7.13598 36.1115 6.88798 35.2475 6.88798C34.3835 6.88798 33.7275 7.13598 33.2795 7.63198C32.8315 8.12798 32.6075 8.83198 32.6075 9.74398V10.248L38.0555 10.2L37.8395 10.44Z" fill="white"/>
<path d="M51.0541 18C49.7901 18 48.7981 17.648 48.0781 16.944C47.3741 16.24 47.0221 15.272 47.0221 14.04V7.51198H43.4461V4.79998H47.0221V1.07998H50.0461V4.79998H55.1101V7.51198H50.0461V14.04C50.0461 14.872 50.4541 15.288 51.2701 15.288H54.8701V18H51.0541Z" fill="white"/>
<path d="M64.0047 18.24C63.3167 18.24 62.7647 18.04 62.3487 17.64C61.9487 17.24 61.7487 16.696 61.7487 16.008C61.7487 15.32 61.9487 14.776 62.3487 14.376C62.7647 13.96 63.3167 13.752 64.0047 13.752C64.6927 13.752 65.2367 13.96 65.6367 14.376C66.0527 14.776 66.2607 15.32 66.2607 16.008C66.2607 16.696 66.0527 17.24 65.6367 17.64C65.2367 18.04 64.6927 18.24 64.0047 18.24Z" fill="white"/>
<path d="M77.8913 18.216C76.8833 18.216 76.0033 18.056 75.2513 17.736C74.4993 17.416 73.9073 16.976 73.4753 16.416C73.0593 15.84 72.8353 15.168 72.8033 14.4H75.8033C75.8353 14.816 76.0353 15.152 76.4033 15.408C76.7873 15.664 77.2833 15.792 77.8913 15.792H78.9473C79.6833 15.792 80.2353 15.648 80.6033 15.36C80.9713 15.072 81.1553 14.68 81.1553 14.184C81.1553 13.72 80.9873 13.36 80.6513 13.104C80.3313 12.832 79.8273 12.656 79.1393 12.576L77.5073 12.336C76.0033 12.128 74.8993 11.728 74.1953 11.136C73.4913 10.544 73.1393 9.65598 73.1393 8.47198C73.1393 7.23998 73.5553 6.28798 74.3873 5.61598C75.2193 4.92798 76.4433 4.58398 78.0593 4.58398H78.9713C80.4433 4.58398 81.6193 4.91198 82.4993 5.56798C83.3793 6.22398 83.8513 7.10398 83.9153 8.20798H80.9153C80.8673 7.85598 80.6673 7.56798 80.3153 7.34398C79.9793 7.11998 79.5313 7.00798 78.9713 7.00798H78.0593C77.3713 7.00798 76.8673 7.13598 76.5473 7.39198C76.2433 7.63198 76.0913 7.99198 76.0913 8.47198C76.0913 8.91998 76.2273 9.25598 76.4993 9.47998C76.7713 9.68798 77.2113 9.83998 77.8193 9.93598L79.5233 10.176C81.0913 10.4 82.2433 10.824 82.9793 11.448C83.7313 12.056 84.1073 12.96 84.1073 14.16C84.1073 15.44 83.6673 16.44 82.7873 17.16C81.9233 17.864 80.6433 18.216 78.9473 18.216H77.8913Z" fill="white"/>
<path d="M92.81 18.24C91.69 18.24 90.714 18.024 89.882 17.592C89.05 17.16 88.402 16.56 87.938 15.792C87.49 15.008 87.266 14.096 87.266 13.056V9.74398C87.266 8.70398 87.49 7.79998 87.938 7.03198C88.402 6.24798 89.05 5.63998 89.882 5.20798C90.714 4.77598 91.69 4.55998 92.81 4.55998C93.914 4.55998 94.874 4.77598 95.69 5.20798C96.522 5.63998 97.162 6.24798 97.61 7.03198C98.074 7.79998 98.306 8.70398 98.306 9.74398V12.12H90.17V13.056C90.17 13.984 90.394 14.688 90.842 15.168C91.29 15.632 91.954 15.864 92.834 15.864C93.506 15.864 94.05 15.752 94.466 15.528C94.882 15.288 95.146 14.944 95.258 14.496H98.21C97.986 15.632 97.378 16.544 96.386 17.232C95.41 17.904 94.218 18.24 92.81 18.24ZM95.402 10.44V9.71998C95.402 8.80798 95.186 8.11198 94.754 7.63198C94.322 7.13598 93.674 6.88798 92.81 6.88798C91.946 6.88798 91.29 7.13598 90.842 7.63198C90.394 8.12798 90.17 8.83198 90.17 9.74398V10.248L95.618 10.2L95.402 10.44Z" fill="white"/>
<path d="M107.249 18.24C106.129 18.24 105.145 18.032 104.297 17.616C103.465 17.184 102.817 16.584 102.353 15.816C101.889 15.032 101.657 14.112 101.657 13.056V9.74398C101.657 8.67198 101.889 7.75198 102.353 6.98398C102.817 6.21598 103.465 5.62398 104.297 5.20798C105.145 4.77598 106.129 4.55998 107.249 4.55998C108.913 4.55998 110.241 4.99198 111.233 5.85598C112.225 6.70398 112.745 7.86398 112.793 9.33598H109.793C109.745 8.64798 109.497 8.11998 109.049 7.75198C108.617 7.36798 108.017 7.17598 107.249 7.17598C106.449 7.17598 105.817 7.39998 105.353 7.84798C104.889 8.27998 104.657 8.90398 104.657 9.71998V13.056C104.657 13.872 104.889 14.504 105.353 14.952C105.817 15.4 106.449 15.624 107.249 15.624C108.017 15.624 108.617 15.44 109.049 15.072C109.497 14.688 109.745 14.152 109.793 13.464H112.793C112.745 14.936 112.225 16.104 111.233 16.968C110.241 17.816 108.913 18.24 107.249 18.24Z" fill="white"/>
<path d="M123.007 18C121.743 18 120.751 17.648 120.031 16.944C119.327 16.24 118.975 15.272 118.975 14.04V7.51198H115.399V4.79998H118.975V1.07998H121.999V4.79998H127.063V7.51198H121.999V14.04C121.999 14.872 122.407 15.288 123.223 15.288H126.823V18H123.007Z" fill="white"/>
</svg>
